<svg width="156" height="64" viewBox="0 0 156 64" fill="none" xmlns="http://www.w3.org/2000/svg">
<g clip-path="url(#clip0_477_10695)">
<path d="M39.6551 0.0680399C23.8664 -0.0350463 5.60576 6.92121 0.944209 18.1906C-1.03917 23.0604 -0.377356 31.8598 7.58708 34.8163C13.2919 36.9378 15.7948 30.1898 13.8815 29.7733C5.77689 28.1033 5.04704 23.7572 6.5088 20.6255C10.2653 12.4858 25.6045 7.23459 38.6119 6.81606C63.3072 5.98106 63.3752 21.2502 45.9516 31.266C33.3607 38.5707 14.1269 42.3952 4.04092 40.4489C1.29264 39.9273 1.29264 48.1 8.91071 48.1C21.5016 48.1 37.6408 44.1003 49.7081 37.3172C72.8365 24.2417 69.5666 0.278336 39.6551 0.0680399Z" fill="#FF916E"/>
<path d="M24.9427 34.0143C26.056 29.1445 29.9506 22.5717 37.3934 15.4073C40.8716 12.1023 31.3423 10.5725 28.0023 14.1558C23.5861 18.8503 15.2031 31.3732 22.8892 34.573C23.7943 34.9565 24.7324 34.9565 24.9406 34.0164L24.9427 34.0143Z" fill="#FF916E"/>
<path d="M66.9566 35.3709C64.2083 41.0757 73.1129 43.8219 83.8606 30.363C84.9739 28.9713 87.2336 29.2847 85.9471 31.2681C78.0857 43.6858 67.6864 46.8155 62.9568 43.9642C55.8954 39.6861 61.2518 28.4868 67.7214 25.3571C74.2262 22.2625 82.3288 25.8437 79.0259 31.7918C75.8611 37.5316 68.7317 38.748 66.9566 35.375V35.3709ZM67.8616 33.703C70.5749 34.8514 73.4963 32.1732 74.7478 29.9465C75.756 28.1033 75.0962 26.6766 72.6964 28.3817C71.7233 29.0765 69.2533 31.4433 67.8616 33.703Z" fill="#FF916E"/>
<path d="M94.1547 40.9025C88.5551 45.4239 80.5907 44.3105 81.2504 36.6244C82.0504 27.825 92.5548 7.8263 101.076 1.91328C106.919 -2.12151 112.832 0.486569 109.424 7.30469C105.911 14.3661 95.9629 24.6252 90.5735 28.3466C88.8355 30.8166 84.7306 41.5293 91.86 37.4945C94.7114 35.8946 99.3028 31.2681 99.8946 30.6083C101.216 29.1466 103.268 29.1466 101.878 31.7918C100.662 34.1215 96.7999 38.7831 94.1568 40.9046L94.1547 40.9025ZM93.2517 22.2934C98.608 16.867 102.921 11.824 105.251 7.99743C106.537 5.84086 106.329 5.00587 104.208 7.23253C100.695 10.9189 93.8434 21.2151 93.2517 22.2934Z" fill="#FF916E"/>
<path d="M108.346 22.1202C110.329 23.0934 113.18 22.0151 114.71 19.7204C116.275 17.4587 115.894 14.7805 113.945 13.8074C111.962 12.8342 109.075 13.9125 107.546 16.2072C106.016 18.5019 106.362 21.1471 108.346 22.1202Z" fill="#FD3233"/>
<path d="M140.587 47.8918C131.196 46.6753 118.223 46.6403 105.249 47.4402C101.771 40.0325 107.684 31.3361 110.432 26.2231C111.545 24.1015 105.459 22.4315 103.092 25.4231C98.9194 30.8496 95.301 40.3438 98.1194 47.9969C85.3553 49.0752 73.2509 50.9184 65.3215 53.1801C59.2704 54.8851 60.8002 62.5011 63.8598 61.0414C70.0511 58.0499 88.1366 54.3986 101.736 53.4584C110.64 62.0146 130.709 65.4576 143.473 63.4413C158.88 61.0414 160.969 50.572 140.587 47.8938V47.8918ZM140.449 58.3612C132.101 58.6746 115.442 56.9345 110.086 52.8316C114.226 52.4152 132.727 52.2399 139.684 53.0749C154.745 54.8831 150.57 57.9798 140.449 58.3612Z" fill="#FF916E"/>
</g>
<defs>
<clipPath id="clip0_477_10695">
<rect width="155.454" height="64" fill="white"/>
</clipPath>
</defs>
</svg>
